<svg xmlns="http://www.w3.org/2000/svg"  viewBox="0 0 48 48" width="48px" height="48px"><linearGradient id="EGOeEaPJY6LAtTxzZvMGva" x1="9" x2="39" y1="24" y2="24" gradientUnits="userSpaceOnUse"><stop offset="0" stop-color="#ff8100"/><stop offset=".231" stop-color="#ff8708"/><stop offset=".597" stop-color="#ff971f"/><stop offset="1" stop-color="#ffad40"/></linearGradient><polygon fill="url(#EGOeEaPJY6LAtTxzZvMGva)" points="9,32 25,16 39,16 23,32"/><linearGradient id="EGOeEaPJY6LAtTxzZvMGvb" x1="7" x2="28.246" y1="16.086" y2="16.086" gradientUnits="userSpaceOnUse"><stop offset="0" stop-color="#ff8100"/><stop offset=".231" stop-color="#ff8708"/><stop offset=".597" stop-color="#ff971f"/><stop offset="1" stop-color="#ffad40"/></linearGradient><path fill="url(#EGOeEaPJY6LAtTxzZvMGvb)" d="M26.709,3.709L26.709,3.709	c-2.049-2.049-5.37-2.049-7.419,0L7,16v14l19.628-18.793C28.753,9.173,28.789,5.789,26.709,3.709z"/><linearGradient id="EGOeEaPJY6LAtTxzZvMGvc" x1="19.754" x2="41" y1="32.086" y2="32.086" gradientUnits="userSpaceOnUse"><stop offset="0" stop-color="#ff8100"/><stop offset=".231" stop-color="#ff8708"/><stop offset=".597" stop-color="#ff971f"/><stop offset="1" stop-color="#ffad40"/></linearGradient><path fill="url(#EGOeEaPJY6LAtTxzZvMGvc)" d="M41,18.173v14L28.709,44.464	c-2.049,2.049-5.37,2.049-7.418,0l0,0c-2.08-2.08-2.043-5.464,0.081-7.498L41,18.173z"/></svg>