<svg xmlns="http://www.w3.org/2000/svg"  viewBox="0 0 48 48" width="48px" height="48px"><g id="Layer_3"><linearGradient id="SVGID_1_" x1="4.247" x2="43.75" y1="23.896" y2="23.896" gradientTransform="translate(-.005 .039)" gradientUnits="userSpaceOnUse"><stop offset="0" stop-color="#fcfcfc"/><stop offset="1" stop-color="#c3c9cd"/></linearGradient><path fill="url(#SVGID_1_)" d="M43.8,24c0,3.5-0.2,6.9-0.6,9.3c0,0.3-0.2,0.6-0.4,0.8c-0.1,0.1-0.1,0.2-0.2,0.2c-2.2,2.2-5.5,4.6-9.1,6.6 c-3.1,1.7-6.4,3.2-9.5,4c-5.8-1.8-14.5-5.6-18.7-10.6c0,0-0.1-0.1-0.1-0.2c-0.2-0.2-0.3-0.5-0.3-0.7C4,28.5,4,18.5,4.9,13.5 c0.1-0.3,0.2-0.7,0.4-0.9c0.1-0.1,0.1-0.1,0.2-0.2C9.8,7.7,18.3,4,24,3c2.6,0.5,6.4,1.9,10.1,3.8c3.2,1.6,6.3,3.5,8.4,5.6 c0,0,0.1,0.1,0.1,0.1c0.3,0.3,0.4,0.7,0.5,1C43.5,16.8,43.7,20.5,43.8,24z"/><path fill="#8d6e63" d="M5.5,12.4c-0.1,0.1-0.1,0.1-0.2,0.2c-0.2,0.3-0.4,0.6-0.4,0.9c-0.9,5-0.9,15,0,19.9c0,0.3,0.2,0.5,0.3,0.8 L24,24L5.5,12.4z"/><path fill="#5d4037" d="M5.2,34.1c0,0.1,0.1,0.1,0.1,0.2c4.1,4.9,12.8,8.7,18.7,10.6c0,0,0,0,0,0V24L5.2,34.1z"/><linearGradient id="SVGID_00000044179237521009669240000012683990183629911186_" x1="4.25" x2="43.75" y1="13.5" y2="13.5" gradientUnits="userSpaceOnUse"><stop offset="0" stop-color="#21ad64"/><stop offset="1" stop-color="#088242"/></linearGradient><path fill="url(#SVGID_00000044179237521009669240000012683990183629911186_)" d="M24,3C24,3,24,3,24,3 C18.3,4,9.8,7.6,5.5,12.4L24,24V3z"/><linearGradient id="SVGID_00000115484378289069376540000017019025112385770942_" x1="29.027" x2="29.027" y1="30.973" y2="-1.256" gradientUnits="userSpaceOnUse"><stop offset="0" stop-color="#d91a2a"/><stop offset=".399" stop-color="#d91a2a"/><stop offset=".622" stop-color="#d91c2c"/><stop offset=".743" stop-color="#d92434"/><stop offset=".84" stop-color="#d93240"/><stop offset=".923" stop-color="#d94552"/><stop offset=".998" stop-color="#d95e69"/><stop offset="1" stop-color="#d95f6a"/></linearGradient><path fill="url(#SVGID_00000115484378289069376540000017019025112385770942_)" d="M24,3v21L34.1,6.8C30.4,4.9,26.6,3.5,24,3 z"/><linearGradient id="SVGID_00000169537892392142981700000003645683876975783356_" x1="4.254" x2="43.746" y1="15.382" y2="15.382" gradientUnits="userSpaceOnUse"><stop offset="0" stop-color="#fed100"/><stop offset=".033" stop-color="#fcca00"/><stop offset=".221" stop-color="#f3a400"/><stop offset=".408" stop-color="#ec8601"/><stop offset=".592" stop-color="#e77101"/><stop offset=".771" stop-color="#e46401"/><stop offset=".941" stop-color="#e36001"/></linearGradient><path fill="url(#SVGID_00000169537892392142981700000003645683876975783356_)" d="M34.1,6.8L24,24l18.5-11.6 C40.3,10.3,37.2,8.4,34.1,6.8z"/><linearGradient id="SVGID_00000173153084542743608370000014160632387414149000_" x1="4.255" x2="43.745" y1="18.189" y2="18.189" gradientUnits="userSpaceOnUse"><stop offset="0" stop-color="#fede00"/><stop offset="1" stop-color="#ffd000"/></linearGradient><path fill="url(#SVGID_00000173153084542743608370000014160632387414149000_)" d="M43.1,13.5c-0.1-0.4-0.2-0.8-0.5-1 c0,0-0.1-0.1-0.1-0.1L24,24h19.7C43.7,20.5,43.5,16.8,43.1,13.5z"/><path fill="#31c447" d="M24,24l18.7,10.1c0.2-0.2,0.3-0.5,0.4-0.8c0.4-2.4,0.7-5.7,0.6-9.3H24z"/><linearGradient id="SVGID_00000048499412420936693990000003768935883839413181_" x1="4.254" x2="43.746" y1="32.443" y2="32.443" gradientUnits="userSpaceOnUse"><stop offset="0" stop-color="#33bef0"/><stop offset="1" stop-color="#22a5e2"/></linearGradient><path fill="url(#SVGID_00000048499412420936693990000003768935883839413181_)" d="M42.7,34.1L24,24l9.5,16.9 c3.6-2,6.9-4.4,9.1-6.6C42.6,34.3,42.7,34.2,42.7,34.1z"/><linearGradient id="SVGID_00000108988013468747528890000000302876720987237538_" x1="31.513" x2="21.605" y1="49.835" y2="25.065" gradientUnits="userSpaceOnUse"><stop offset="0" stop-color="#7b83eb"/><stop offset="1" stop-color="#5961c3"/></linearGradient><path fill="url(#SVGID_00000108988013468747528890000000302876720987237538_)" d="M24,44.9c3.1-0.8,6.4-2.3,9.5-4L24,24 V44.9z"/><path fill="#fff" d="M33.8,28c-0.1,0.7-0.4,1.4-1,1.8c-1.9,1.7-4.9,3.5-7.8,4.5c-0.3,0.1-0.7,0.2-1,0.2c-0.3,0-0.7-0.1-1-0.2 c-2.6-0.9-6-2.5-8-4.5c-0.5-0.5-0.8-1-0.8-1.7c-0.3-2.3-0.3-5.9,0-8.2c0.1-0.6,0.3-1.2,0.8-1.6c0,0,0,0,0.1-0.1 c2-2,5.4-3.9,8.1-4.6c0.5-0.1,1.1-0.1,1.6,0c2.4,0.7,6,2.6,8.1,4.5c0,0,0.1,0.1,0.1,0.1c0.4,0.4,0.7,1,0.8,1.6 C34.1,22.7,34.1,25.7,33.8,28z"/><linearGradient id="SVGID_00000002385408907816961130000002712920568824017801_" x1="29.001" x2="29.001" y1="19.009" y2="31.367" gradientUnits="userSpaceOnUse"><stop offset="0" stop-color="#fcfcfc"/><stop offset="1" stop-color="#c3c9cd"/></linearGradient><path fill="url(#SVGID_00000002385408907816961130000002712920568824017801_)" d="M33.8,28c-0.1,0.7-0.4,1.4-1,1.8 c-1.9,1.7-4.9,3.5-7.8,4.5c-0.3,0.1-0.7,0.2-1,0.2V24l9-5.7c0.4,0.4,0.6,1,0.7,1.6C34.1,22.7,34.1,25.7,33.8,28z"/><linearGradient id="SVGID_00000103988112536544609250000000489953249512919942_" x1="18.999" x2="18.999" y1="32.002" y2="19.095" gradientUnits="userSpaceOnUse"><stop offset="0" stop-color="#92a3b0"/><stop offset=".336" stop-color="#a3b5c4"/><stop offset=".686" stop-color="#aec2d1"/><stop offset="1" stop-color="#b2c6d6"/></linearGradient><path fill="url(#SVGID_00000103988112536544609250000000489953249512919942_)" d="M24,24v10.5c-0.3,0-0.7-0.1-1-0.2 c-2.6-0.9-6-2.5-8-4.5c-0.5-0.5-0.8-1-0.8-1.7c-0.3-2.3-0.3-5.9,0-8.2c0.1-0.6,0.3-1.2,0.7-1.6L24,24z"/></g></svg>